# File created by Blade
# Date/Time:  Thu Sep 25 17:43:48 2014
# Frame Rate: 120.000 fps
#------------------------------------------------------
:FULLY-SPECIFIED
:DEGREES
413
root -20.175383 32.934092 -6.065343 -353.814804 15.294602 -1.029265
Spine -0.711885 9.375702 0.212879
Head 16.352559 20.680717 10.405575
LeftShoulder -17.574535 18.952113 27.060493
LeftArm 23.170368 -22.511963 -23.095880
LeftForeArm 7.696393 -0.000000 13.127267
LeftHand -29.112720 -0.000000 1.807344
LeftHandThumb1 -26.253704 0.000000 33.147579
RightShoulder -18.378318 12.445688 -39.287685
RightArm -11.596636 5.914014 33.100597
RightForeArm -27.701977 -0.000000 18.998474
RightHand -15.486166 -0.000000 1.166029
RightHandThumb1 -24.326973 -0.000000 -32.862282
LeftUpLeg -4.030634 -11.540416 0.573844
LeftLeg -2.083963 -0.000000 0.000000
LeftFoot -14.167236 14.697277 335.947709
LeftToeBase 5.588831 -0.000000 -0.000000
RightUpLeg -5.529145 -12.590568 3.309384
RightLeg 5.059414 -0.000000 -0.000000
RightFoot -10.164416 -4.484493 -5.431563
RightToeBase 2.130813 -0.000000 -0.000000
414
root -20.158687 32.933400 -6.073964 -353.836493 15.295508 -1.031727
Spine -0.499258 9.349622 0.208009
Head 16.337991 20.530475 10.404041
LeftShoulder -17.619370 19.028714 26.992859
LeftArm 23.208382 -22.505476 -23.156262
LeftForeArm 7.688884 -0.000000 13.149583
LeftHand -29.140405 -0.000000 1.907306
LeftHandThumb1 -26.253704 0.000000 33.147579
RightShoulder -18.306359 12.439427 -39.210165
RightArm -11.754047 5.959276 33.094316
RightForeArm -27.937924 0.000000 19.123446
RightHand -15.817056 -0.000000 1.735755
RightHandThumb1 -24.326973 -0.000000 -32.862282
LeftUpLeg -4.015373 -11.469501 0.538670
LeftLeg -2.079501 -0.000000 0.000000
LeftFoot -14.168942 14.597950 335.908166
LeftToeBase 5.611329 -0.000000 -0.000000
RightUpLeg -5.569017 -12.389647 3.266383
RightLeg 5.176767 -0.000000 -0.000000
RightFoot -10.177514 -4.668546 -5.425176
RightToeBase 2.124374 -0.000000 -0.000000
415
root -20.142370 32.932986 -6.081899 -353.862702 15.307512 -1.009159
Spine -0.263249 9.329597 0.172040
Head 16.363628 20.399424 10.407872
LeftShoulder -17.688890 19.032193 26.935039
LeftArm 23.316116 -22.297116 -23.116419
LeftForeArm 7.418629 -0.000000 13.065516
LeftHand -29.246471 -0.000000 2.080106
LeftHandThumb1 -26.253704 0.000000 33.147579
RightShoulder -18.283191 12.408238 -39.161974
RightArm -11.862151 5.969293 33.156693
RightForeArm -27.939789 -0.000000 19.106522
RightHand -15.844119 0.000000 1.821268
RightHandThumb1 -24.326973 -0.000000 -32.862282
LeftUpLeg -3.990998 -11.375415 0.473448
LeftLeg -2.067698 -0.000000 0.000000
LeftFoot -14.152435 14.482832 335.865753
LeftToeBase 5.601380 -0.000000 -0.000000
RightUpLeg -5.590611 -12.220791 3.204518
RightLeg 5.279488 -0.000000 -0.000000
RightFoot -10.187918 -4.889474 -5.471098
RightToeBase 2.114455 -0.000000 -0.000000
416
root -20.125941 32.932500 -6.091809 -353.867426 15.343696 -0.984638
Spine -0.077895 9.286699 0.139482
Head 16.437551 20.195811 10.404120
LeftShoulder -17.592469 19.021357 26.975277
LeftArm 23.226305 -22.207402 -23.190208
LeftForeArm 7.233138 0.000000 13.028183
LeftHand -28.843085 0.000000 2.361568
LeftHandThumb1 -26.253704 0.000000 33.147579
RightShoulder -18.395861 12.332527 -39.109019
RightArm -11.721347 5.984246 33.238385
RightForeArm -27.846650 -0.000000 18.989151
RightHand -15.834331 0.000000 1.759870
RightHandThumb1 -24.326973 -0.000000 -32.862282
LeftUpLeg -3.997537 -11.315191 0.415580
LeftLeg -2.053522 -0.000000 0.000000
LeftFoot -14.138522 14.354909 335.792031
LeftToeBase 5.595419 -0.000000 -0.000000
RightUpLeg -5.624084 -12.041564 3.138648
RightLeg 5.367648 -0.000000 -0.000000
RightFoot -10.197308 -5.061876 -5.516363
RightToeBase 2.146528 -0.000000 -0.000000
417
root -20.112010 32.932604 -6.099617 -353.877203 15.398350 -0.971625
Spine 0.108084 9.214275 0.121084
Head 16.569112 20.067895 10.443894
LeftShoulder -17.621518 18.978714 26.980383
LeftArm 23.309833 -22.136143 -23.283033
LeftForeArm 7.339043 0.000000 13.070384
LeftHand -29.079242 -0.000000 1.994353
LeftHandThumb1 -26.253704 0.000000 33.147579
RightShoulder -18.451484 12.425026 -39.113113
RightArm -11.764150 5.935707 33.303488
RightForeArm -27.749702 0.000000 18.901186
RightHand -15.789168 -0.000000 1.704016
RightHandThumb1 -24.326973 -0.000000 -32.862282
LeftUpLeg -3.989425 -11.278756 0.374733
LeftLeg -2.063353 -0.000000 0.000000
LeftFoot -14.101889 14.272780 335.787097
LeftToeBase 5.649695 -0.000000 -0.000000
RightUpLeg -5.645281 -11.920182 3.098648
RightLeg 5.431048 -0.000000 -0.000000
RightFoot -10.205129 -5.248048 -5.508748
RightToeBase 2.163362 -0.000000 -0.000000
418
root -20.099590 32.932806 -6.108702 -353.865322 15.480734 -0.965149
Spine 0.260103 9.105150 0.094297
Head 16.703217 19.890337 10.514318
LeftShoulder -17.638152 18.984776 27.006611
LeftArm 23.363355 -22.243247 -23.469726
LeftForeArm 7.440127 0.000000 13.211396
LeftHand -29.065363 -0.000000 1.686046
LeftHandThumb1 -26.253704 0.000000 33.147579
RightShoulder -18.449286 12.397037 -39.037988
RightArm -11.786443 6.018078 33.334393
RightForeArm -27.633212 -0.000000 18.862444
RightHand -15.716314 -0.000000 1.838336
RightHandThumb1 -24.326973 -0.000000 -32.862282
LeftUpLeg -4.024205 -11.238761 0.344344
LeftLeg -2.021734 -0.000000 0.000000
LeftFoot -13.932658 14.137454 336.079545
LeftToeBase 5.349919 -0.000000 -0.000000
RightUpLeg -5.690460 -11.887356 3.079648
RightLeg 5.487827 -0.000000 -0.000000
RightFoot -10.205151 -5.377711 -5.540813
RightToeBase 2.129390 -0.000000 -0.000000
419
root -20.088222 32.932391 -6.120780 -353.822029 15.585860 -0.959685
Spine 0.370753 9.000998 0.064820
Head 16.884509 19.696321 10.637747
LeftShoulder -17.641859 18.918344 27.037363
LeftArm 23.535555 -22.112050 -23.529504
LeftForeArm 7.370718 -0.000000 13.004687
LeftHand -28.946052 -0.000000 1.637183
LeftHandThumb1 -26.253704 0.000000 33.147579
RightShoulder -18.478789 12.372110 -38.977880
RightArm -11.783563 6.015692 33.374037
RightForeArm -27.519297 -0.000000 18.794992
RightHand -15.763960 -0.000000 1.778069
RightHandThumb1 -24.326973 -0.000000 -32.862282
LeftUpLeg -4.077957 -11.270645 0.334237
LeftLeg -2.077734 -0.000000 0.000000
LeftFoot -13.969003 14.117137 335.891093
LeftToeBase 5.744209 -0.000000 -0.000000
RightUpLeg -5.763145 -11.869891 3.072918
RightLeg 5.528688 -0.000000 -0.000000
RightFoot -10.215942 -5.532447 -5.545122
RightToeBase 2.210911 -0.000000 -0.000000
420
root -20.076668 32.931312 -6.132415 -353.768496 15.698217 -0.955542
Spine 0.462704 8.900954 0.043715
Head 17.043315 19.476142 10.679488
LeftShoulder -17.603799 18.767741 27.096348
LeftArm 23.559495 -21.879817 -23.554981
LeftForeArm 7.374668 0.000000 13.040983
LeftHand -29.159023 0.000000 1.700886
LeftHandThumb1 -26.253704 0.000000 33.147579
RightShoulder -18.512225 12.405160 -38.966833
RightArm -11.859801 5.948092 33.422993
RightForeArm -27.395667 -0.000000 18.793548
RightHand -15.817167 -0.000000 1.826724
RightHandThumb1 -24.326973 -0.000000 -32.862282
LeftUpLeg -4.162106 -11.232810 0.318994
LeftLeg -2.074422 -0.000000 0.000000
LeftFoot -13.894572 13.994822 335.931772
LeftToeBase 5.882031 -0.000000 -0.000000
RightUpLeg -5.847014 -11.931288 3.072693
RightLeg 5.569488 -0.000000 -0.000000
RightFoot -10.220067 -5.591669 -5.551745
RightToeBase 2.245357 -0.000000 -0.000000
421
root -20.064144 32.930673 -6.143228 -353.710665 15.826704 -0.959864
Spine 0.528929 8.749924 0.034007
Head 17.289463 19.247431 10.777117
LeftShoulder -17.562457 18.406223 27.260217
LeftArm 23.538337 -21.573223 -23.669776
LeftForeArm 7.420501 0.000000 13.045436
LeftHand -29.195221 -0.000000 1.609614
LeftHandThumb1 -26.253704 0.000000 33.147579
RightShoulder -18.544715 12.378645 -38.923635
RightArm -11.821258 5.926505 33.470615
RightForeArm -27.270105 -0.000000 18.759922
RightHand -15.755858 0.000000 1.913540
RightHandThumb1 -24.326973 -0.000000 -32.862282
LeftUpLeg -4.251185 -11.214609 0.309737
LeftLeg -2.061987 -0.000000 0.000000
LeftFoot -13.825556 13.876334 335.996471
LeftToeBase 5.945119 -0.000000 -0.000000
RightUpLeg -5.914666 -12.017365 3.074132
RightLeg 5.593732 -0.000000 -0.000000
RightFoot -10.234766 -5.703999 -5.596119
RightToeBase 2.246460 -0.000000 -0.000000
422
root -20.058152 32.930077 -6.154167 -353.644592 15.943994 -0.971511
Spine 0.586781 8.581073 0.019280
Head 17.529239 19.074115 10.856181
LeftShoulder -17.666299 18.425617 27.197760
LeftArm 23.781516 -21.575116 -23.721568
LeftForeArm 7.478936 -0.000000 12.980453
LeftHand -29.096895 -0.000000 1.755958
LeftHandThumb1 -26.253704 0.000000 33.147579
RightShoulder -18.574668 12.376424 -38.933043
RightArm -11.762075 5.946714 33.599625
RightForeArm -27.240789 0.000000 18.693253
RightHand -15.679404 -0.000000 1.992470
RightHandThumb1 -24.326973 -0.000000 -32.862282
LeftUpLeg -4.337417 -11.273289 0.330659
LeftLeg -2.065159 -0.000000 0.000000
LeftFoot -13.671975 13.794694 336.211726
LeftToeBase 5.637815 -0.000000 -0.000000
RightUpLeg -5.996116 -12.165032 3.114370
RightLeg 5.565699 -0.000000 -0.000000
RightFoot -10.201270 -5.677190 -5.636526
RightToeBase 2.261314 -0.000000 -0.000000
423
root -20.056259 32.930366 -6.168926 -353.553256 16.055524 -0.997377
Spine 0.620481 8.423205 0.010840
Head 17.749876 18.907953 10.947891
LeftShoulder -17.676407 18.352814 27.211340
LeftArm 23.902597 -21.520862 -23.790131
LeftForeArm 7.562981 -0.000000 12.935216
LeftHand -29.289235 0.000000 1.955437
LeftHandThumb1 -26.253704 0.000000 33.147579
RightShoulder -18.587434 12.336922 -38.936488
RightArm -11.726420 6.047179 33.732380
RightForeArm -27.270080 -0.000000 18.650949
RightHand -15.517034 -0.000000 2.067789
RightHandThumb1 -24.326973 -0.000000 -32.862282
LeftUpLeg -4.482206 -11.213084 0.375450
LeftLeg -2.065012 -0.000000 0.000000
LeftFoot -13.745433 13.660055 335.917383
LeftToeBase 6.064385 -0.000000 -0.000000
RightUpLeg -6.103044 -12.268564 3.170105
RightLeg 5.533711 -0.000000 -0.000000
RightFoot -10.159112 -5.682688 -5.622054
RightToeBase 2.310872 -0.000000 -0.000000
424
root -20.050978 32.930515 -6.179416 -353.460613 16.160202 -1.017811
Spine 0.642022 8.267683 0.000053
Head 17.999617 18.687786 11.013535
LeftShoulder -17.646154 18.663350 27.087919
LeftArm 24.032749 -21.897504 -23.875312
LeftForeArm 7.567273 -0.000000 12.998556
LeftHand -29.389017 -0.000000 2.063458
LeftHandThumb1 -26.253704 0.000000 33.147579
RightShoulder -18.636595 12.378048 -38.967964
RightArm -11.736635 6.087954 33.848183
RightForeArm -27.405677 0.000000 18.726509
RightHand -15.899878 0.000000 1.968939
RightHandThumb1 -24.326973 -0.000000 -32.862282
LeftUpLeg -4.591728 -11.174463 0.409326
LeftLeg -2.094105 -0.000000 0.000000
LeftFoot -13.718227 13.527027 335.839211
LeftToeBase 6.087924 -0.000000 -0.000000
RightUpLeg -6.211279 -12.459015 3.221768
RightLeg 5.508859 -0.000000 -0.000000
RightFoot -10.135080 -5.604114 -5.537572
RightToeBase 2.268568 -0.000000 -0.000000
425
root -20.045583 32.931323 -6.188984 -353.391430 16.237902 -1.031005
Spine 0.681045 8.138317 -0.020995
Head 18.216309 18.432245 11.053466
LeftShoulder -17.610997 18.318862 27.215848
LeftArm 23.979300 -21.683045 -23.963399
LeftForeArm 7.573272 -0.000000 13.039515
LeftHand -29.406287 -0.000000 2.257209
LeftHandThumb1 -26.253704 0.000000 33.147579
RightShoulder -18.645233 12.381067 -38.915059
RightArm -11.689932 6.077785 33.892226
RightForeArm -27.410021 -0.000000 18.709360
RightHand -15.660530 -0.000000 2.181737
RightHandThumb1 -24.326973 -0.000000 -32.862282
LeftUpLeg -4.649174 -11.129900 0.430486
LeftLeg -2.167696 -0.000000 0.000000
LeftFoot -13.642769 13.380124 335.774638
LeftToeBase 6.139965 -0.000000 -0.000000
RightUpLeg -6.280194 -12.610064 3.250837
RightLeg 5.471822 -0.000000 -0.000000
RightFoot -10.112467 -5.526700 -5.530565
RightToeBase 2.299270 -0.000000 -0.000000
